<?xml version="1.0" encoding="utf-8"?>
<!-- Generator: Adobe Illustrator 21.0.2, SVG Export Plug-In . SVG Version: 6.00 Build 0)  -->
<svg version="1.1" id="Calque_1" xmlns="http://www.w3.org/2000/svg" xmlns:xlink="http://www.w3.org/1999/xlink" x="0px" y="0px"
	 viewBox="0 0 764.3 170.4" style="enable-background:new 0 0 764.3 170.4;" xml:space="preserve">
<style type="text/css">
	.st0{fill:none;}
	.st1{fill:#E11F21;}
	.st2{fill:#FBBA00;}
	.st3{fill:#212E79;}
</style>
<rect x="-39.3" y="-38.7" class="st0" width="842" height="245"/>
<g>
	<path d="M762.8,142.2c-1.1-1.4-3.3-2.9-6.4-4.6l-0.7-0.4c-1.7-0.9-2.8-1.6-3.4-2.2c-0.6-0.6-0.9-1.3-0.9-2.2c0-1.1,0.3-1.9,0.9-2.4
		c0.6-0.5,1.6-0.8,2.8-0.8c1,0,1.9,0.2,2.7,0.6s1.5,1,2.2,1.9l3.2-3.1l-0.3-0.3c-1-1-2.2-1.8-3.5-2.3s-2.8-0.8-4.3-0.8
		c-2.6,0-4.6,0.7-6.1,2s-2.2,3.2-2.2,5.5c0,1,0.1,1.8,0.4,2.6c0.3,0.8,0.7,1.5,1.2,2.1c0.6,0.7,1.4,1.4,2.3,2c1,0.7,2.2,1.4,3.7,2.2
		l0.7,0.4c1.9,1,3.1,1.9,3.7,2.7c0.6,0.8,0.9,1.7,0.9,2.7c0,1.3-0.4,2.2-1.2,3c-0.8,0.7-1.9,1.1-3.3,1.1c-1.1,0-2.2-0.3-3.2-0.8
		s-2-1.4-3.2-2.7l-3.2,3.3l0.3,0.3c1.5,1.5,2.9,2.5,4.4,3.1s3.1,0.9,5,0.9c2.8,0,5-0.7,6.6-2.2s2.4-3.5,2.4-6.1
		C764.5,145.4,763.9,143.6,762.8,142.2 M725.9,150.8c-0.3,0-0.5,0-0.6,0.1c-0.1,0-0.3,0.1-0.4,0.3l-0.1-0.1c0.1-0.2,0.2-0.3,0.2-0.4
		c0.1-0.1,0.1-0.3,0.1-0.6v-6.5c0-0.2,0-0.4-0.1-0.5c-0.1-0.2-0.1-0.3-0.2-0.5l0.2-0.2c0.2,0.1,0.3,0.2,0.4,0.3
		c0.1,0,0.3,0.1,0.6,0.1h9.9v-4.4H726c-0.2,0-0.4,0-0.6,0.1c-0.1,0-0.3,0.1-0.5,0.3l-0.2-0.2c0.1-0.2,0.2-0.4,0.3-0.5
		c0-0.1,0.1-0.3,0.1-0.5v-6c0-0.2,0-0.4-0.1-0.5c-0.1-0.2-0.1-0.3-0.2-0.5l0.1-0.2c0.2,0.1,0.4,0.2,0.5,0.3c0.1,0,0.3,0.1,0.5,0.1
		h11.3l-0.5-4.5h-16.4v29.4h16.4l0.5-4.5h-11.3V150.8z M701.6,150.8c-0.3,0-0.5,0-0.6,0.1c-0.1,0-0.3,0.1-0.4,0.3l-0.2-0.2
		c0.1-0.1,0.2-0.3,0.3-0.4c0-0.1,0.1-0.3,0.1-0.6v-24H696v29.4h14.9l0.7-4.5L701.6,150.8L701.6,150.8z M677.2,150.8
		c-0.3,0-0.5,0-0.6,0.1c-0.1,0-0.3,0.1-0.4,0.3L676,151c0.1-0.1,0.2-0.3,0.3-0.4s0.1-0.3,0.1-0.6v-24h-4.8v29.4h14.9l0.7-4.5
		L677.2,150.8L677.2,150.8z M649.7,150.8c-0.3,0-0.5,0-0.6,0.1c-0.1,0-0.3,0.1-0.4,0.3l-0.1-0.1c0.1-0.2,0.2-0.3,0.2-0.4
		c0.1-0.1,0.1-0.3,0.1-0.6v-6.5c0-0.2,0-0.4-0.1-0.5c-0.1-0.2-0.1-0.3-0.2-0.5l0.2-0.2c0.1,0.1,0.3,0.2,0.4,0.3
		c0.1,0,0.3,0.1,0.6,0.1h9.9v-4.4h-9.9c-0.3,0-0.4,0-0.6,0.1c-0.1,0-0.3,0.1-0.5,0.3l-0.2-0.2c0.1-0.2,0.2-0.4,0.3-0.5
		c0-0.1,0.1-0.3,0.1-0.5v-6c0-0.2,0-0.4-0.1-0.5c-0.1-0.2-0.1-0.3-0.2-0.5l0.1-0.2c0.2,0.1,0.4,0.2,0.5,0.3c0.2,0,0.3,0.1,0.5,0.1
		H661l-0.5-4.5h-16.4v29.4h16.4l0.5-4.5h-11.3V150.8z M627,141.1c-0.1-0.3-0.2-0.4-0.3-0.5s-0.2-0.1-0.4-0.2v-0.2
		c0.1,0,0.3-0.1,0.4-0.2c0.1-0.1,0.2-0.2,0.3-0.5l7.7-13.6h-5.3l-4.4,8.3c-0.4,0.7-0.6,1.2-0.7,1.6c-0.1,0.4-0.2,1.1-0.3,2h-0.2
		c-0.1-0.9-0.2-1.5-0.3-1.9s-0.4-1-0.7-1.7l-4.4-8.3h-5.3l7.7,13.6c0.1,0.2,0.2,0.4,0.3,0.5s0.2,0.2,0.4,0.2v0.2
		c-0.1,0-0.3,0.1-0.4,0.2c-0.1,0.1-0.2,0.3-0.3,0.5l-8,14.3h5.3l4.7-8.9c0.4-0.8,0.7-1.4,0.8-1.8s0.2-1,0.2-1.8h0.2
		c0.1,0.8,0.2,1.5,0.3,1.9s0.4,1,0.7,1.7l4.7,8.9h5.3L627,141.1z M604.1,126h-4.8v17c0,2.8-0.6,4.9-1.7,6.3
		c-1.1,1.4-2.8,2.1-5.1,2.1s-4-0.7-5.1-2.1s-1.7-3.5-1.7-6.3v-17h-4.9v16.5c0,2.4,0.2,4.4,0.7,5.9s1.2,2.8,2.2,3.9
		c1.1,1.2,2.4,2.1,3.9,2.7s3.1,0.9,4.8,0.9s3.3-0.3,4.8-0.9s2.8-1.5,3.9-2.7c1-1,1.8-2.3,2.2-3.9c0.5-1.5,0.7-3.5,0.7-5.9L604.1,126
		L604.1,126z M564.7,143.7c-0.3-0.4-0.6-0.8-1-1.1c-0.4-0.3-0.9-0.7-1.4-1l0.1-0.1c0.4,0.1,0.7,0.2,1,0.2s0.6,0.1,0.8,0.1
		c1.8,0,3.3-0.7,4.6-2.2c1.2-1.4,1.9-3.2,1.9-5.3c0-2.7-0.8-4.7-2.4-6.1c-1.6-1.4-4-2.1-7.1-2.1h-7.8v29.4h4.6v-10.3
		c0-1.1,0-1.9-0.1-2.4s-0.2-1.1-0.3-1.8l0.2-0.1c0.2,0.6,0.5,1.2,0.7,1.6s0.6,1.1,1.2,1.9l7.5,11.2h5.3L564.7,143.7z M565.1,137.4
		c-0.8,0.7-1.9,1-3.6,1h-2.9c-0.3,0-0.5,0-0.6,0.1c-0.1,0-0.3,0.1-0.4,0.3l-0.2-0.2c0.2-0.2,0.3-0.3,0.3-0.5
		c0.1-0.2,0.1-0.3,0.1-0.5v-6.7c-0.1-0.2-0.1-0.4-0.2-0.6c-0.1-0.1-0.1-0.3-0.3-0.4l0.2-0.2c0.2,0.1,0.3,0.2,0.5,0.3
		c0.1,0,0.3,0.1,0.6,0.1h2.9c1.6,0,2.8,0.3,3.5,1c0.8,0.7,1.1,1.7,1.1,3.2C566.2,135.7,565.9,136.8,565.1,137.4 M541.6,142.1
		c-1-1.2-2.3-2-4.1-2.3v-0.2c1.4-0.4,2.5-1.1,3.2-2.1s1.1-2.2,1.1-3.8c0-2.5-0.8-4.4-2.4-5.7c-1.6-1.3-4-2-7.1-2h-8.2v29.4h8.8
		c3.2,0,5.6-0.8,7.4-2.5c1.8-1.6,2.7-3.7,2.7-6.3C543,144.8,542.6,143.3,541.6,142.1 M536.3,137c-0.7,0.7-1.8,1.1-3.2,1.1h-3.8
		c-0.3,0-0.4,0-0.6,0.1c-0.1,0-0.3,0.1-0.5,0.3l-0.2-0.2c0,0,0-0.1,0.1-0.1c0.2-0.3,0.3-0.6,0.3-0.9V131c0-0.2,0-0.4-0.1-0.5
		s-0.1-0.3-0.3-0.5l0.2-0.2c0.2,0.1,0.3,0.2,0.4,0.3c0.1,0,0.3,0.1,0.6,0.1h3.2c1.7,0,2.9,0.3,3.7,0.9s1.1,1.6,1.1,2.9
		C537.4,135.2,537.1,136.3,536.3,137 M537.2,149.9c-0.9,0.8-2.2,1.3-3.9,1.3h-3.9c-0.3,0-0.4,0-0.6,0.1c-0.1,0-0.3,0.1-0.5,0.3
		l-0.2-0.2c0.1-0.2,0.2-0.3,0.3-0.5c0-0.1,0.1-0.3,0.1-0.6v-7.6c0-0.2,0-0.4-0.1-0.5c0-0.1-0.1-0.3-0.3-0.5l0.2-0.2
		c0.2,0.1,0.3,0.2,0.5,0.3c0.1,0,0.3,0.1,0.6,0.1h3.7c1,0,1.9,0.1,2.5,0.3c0.6,0.2,1.2,0.5,1.7,1c0.4,0.4,0.7,0.9,0.9,1.5
		s0.3,1.1,0.3,1.7C538.6,147.9,538.1,149.1,537.2,149.9 M513,142.5h-10.2v4.3H513V142.5z M482.4,150.8c-0.3,0-0.5,0-0.6,0.1
		c-0.1,0-0.3,0.1-0.4,0.3l-0.1-0.1c0.1-0.2,0.2-0.3,0.3-0.4s0.1-0.3,0.1-0.6v-6.5c0-0.2,0-0.4-0.1-0.5c-0.1-0.2-0.1-0.3-0.3-0.5
		l0.2-0.2c0.2,0.1,0.3,0.2,0.4,0.3c0.1,0,0.3,0.1,0.6,0.1h9.9v-4.4h-9.9c-0.2,0-0.4,0-0.6,0.1c-0.1,0-0.3,0.1-0.5,0.3l-0.2-0.2
		c0.1-0.2,0.2-0.4,0.3-0.5s0.1-0.3,0.1-0.5v-6c0-0.2,0-0.4-0.1-0.5c-0.1-0.2-0.1-0.3-0.3-0.5l0.1-0.2c0.2,0.1,0.4,0.2,0.5,0.3
		c0.1,0,0.3,0.1,0.5,0.1h11.5l-0.5-4.5h-16.4v29.4h16.4l0.5-4.5h-11.4V150.8z M464.9,125.9h-4.8v29.4h4.8V125.9z M448.1,126h-4.7v18
		c0,0.8,0.1,1.7,0.2,2.6s0.4,2,0.7,3.3h-0.2c-0.4-1.1-0.8-2.1-1.1-2.8c-0.4-0.8-0.8-1.5-1.3-2.3l-13-18.9h-4.3v29.4h4.7v-18.1
		c0-0.8-0.1-1.5-0.2-2.3s-0.4-2-0.7-3.5h0.2c0.5,1.3,0.8,2.3,1.1,2.9c0.3,0.6,0.7,1.3,1.3,2.1l12.9,18.9h4.3V126H448.1z
		 M410.1,129.7c-2.8-2.8-6.3-4.2-10.7-4.2c-4.2,0-7.7,1.4-10.5,4.3c-2.7,2.9-4.1,6.5-4.1,10.9c0,4.5,1.4,8.1,4.1,11
		c2.7,2.8,6.3,4.3,10.6,4.3c4.3,0,7.8-1.4,10.6-4.3c2.8-2.8,4.1-6.5,4.1-10.9C414.2,136.2,412.8,132.5,410.1,129.7 M406.6,148.3
		c-1.8,1.9-4.2,2.9-7.1,2.9s-5.3-1-7.1-2.9c-1.8-1.9-2.7-4.5-2.7-7.7s0.9-5.8,2.7-7.7c1.8-2,4.2-2.9,7.1-2.9s5.3,1,7.1,3
		c1.8,2,2.7,4.5,2.7,7.7C409.3,143.8,408.4,146.4,406.6,148.3 M368.4,150.8c-0.3,0-0.5,0-0.6,0.1c-0.1,0-0.3,0.1-0.4,0.3l-0.2-0.2
		c0.1-0.1,0.2-0.3,0.3-0.4c0.1-0.1,0.1-0.3,0.1-0.6v-24h-4.8v29.4h14.9l0.7-4.5L368.4,150.8L368.4,150.8z M344,150.8
		c-0.3,0-0.5,0-0.6,0.1c-0.1,0-0.3,0.1-0.4,0.3l-0.2-0.2c0.1-0.1,0.2-0.3,0.3-0.4c0-0.1,0.1-0.3,0.1-0.6v-24h-4.8v29.4h14.9l0.7-4.5
		L344,150.8L344,150.8z M318.9,126h-4.2L304,155.4h4.8l3.1-8.8h9.7l3.1,8.8h4.8L318.9,126z M320.5,142.4c-0.2-0.1-0.3-0.1-0.4-0.1
		s-0.3,0-0.5,0H314c-0.2,0-0.3,0-0.4,0s-0.3,0.1-0.5,0.1l-0.1-0.2c0.1-0.1,0.2-0.2,0.3-0.3c0.1-0.1,0.1-0.2,0.2-0.4l2.8-8
		c0.1-0.3,0.2-0.8,0.3-1.5c0.1-0.6,0.1-1.3,0.2-2.1h0.2c0,0.8,0.1,1.5,0.2,2.1s0.2,1.1,0.3,1.5l2.8,8c0.1,0.2,0.1,0.3,0.2,0.4
		s0.2,0.2,0.3,0.3L320.5,142.4z M294.6,126l-5.5,19.3c-0.2,0.8-0.4,1.5-0.5,2.1s-0.1,1.6-0.2,3h-0.2c-0.1-1.4-0.3-2.4-0.4-3
		s-0.3-1.3-0.5-2l-5-14.9l-5,14.9c-0.2,0.7-0.4,1.3-0.5,1.9s-0.2,1.6-0.4,3h-0.2c0-1.4-0.1-2.4-0.2-3s-0.2-1.3-0.5-2.1l-5.5-19.3
		h-5.1l8.9,29.4h4.4l3.7-11.7c0.1-0.4,0.2-0.9,0.3-1.6c0.1-0.7,0.1-1.5,0.2-2.4h0.2c0,0.9,0.1,1.8,0.2,2.4c0.1,0.7,0.2,1.2,0.3,1.6
		l3.7,11.7h4.3l8.9-29.4h-5.4V126z"/>
	<path d="M763.7,53.4h-8.4v32.8c0,1.5,0.1,3.1,0.4,4.8c0.3,1.6,0.7,3.6,1.2,6l-0.4,0.1c-0.7-2-1.4-3.7-2-5.1
		c-0.7-1.4-1.5-2.8-2.4-4.1l-23.6-34.3h-7.8v53.3h8.5V74.1c0-1.4-0.1-2.8-0.3-4.2c-0.2-1.4-0.6-3.5-1.3-6.4l0.4-0.1
		c0.9,2.4,1.5,4.2,2.1,5.3c0.5,1.1,1.3,2.4,2.3,3.9l23.5,34.4h7.8V53.4z M695.2,60.1c-5-5.1-11.5-7.7-19.4-7.7c-7.7,0-14,2.6-19,7.8
		c-5,5.2-7.5,11.8-7.5,19.8c0,8.1,2.5,14.7,7.5,19.9c5,5.2,11.4,7.8,19.2,7.8s14.2-2.6,19.2-7.8c5-5.2,7.5-11.8,7.5-19.8
		C702.7,71.9,700.2,65.3,695.2,60.1 M689,94c-3.3,3.5-7.6,5.3-12.9,5.3c-5.4,0-9.7-1.8-12.9-5.3c-3.3-3.5-4.9-8.2-4.9-14
		s1.7-10.5,4.9-14c3.3-3.5,7.6-5.3,13-5.3c5.3,0,9.5,1.8,12.8,5.4s4.9,8.2,4.9,13.9C693.9,85.8,692.2,90.5,689,94 M630.8,53.3H622
		v53.4h8.8V53.3z M604.9,53.4h-31.6l-1.1,8h11c0.5,0,0.8,0,1.1-0.1c0.2-0.1,0.5-0.2,0.7-0.5l0.3,0.3c-0.3,0.4-0.4,0.7-0.5,1
		c-0.1,0.2-0.1,0.5-0.1,0.9v43.8h8.6V63c0-0.4,0-0.7-0.1-1s-0.2-0.6-0.5-0.9l0.3-0.3c0.3,0.3,0.6,0.4,0.8,0.5s0.6,0.1,1,0.1h11.1
		L604.9,53.4z M546.4,53.4h-7.6l-19.4,53.3h8.8l5.7-16h17.5l5.6,16h8.8L546.4,53.4z M549.3,83.3c-0.3-0.1-0.5-0.2-0.8-0.2
		s-0.6-0.1-0.9-0.1h-10.1c-0.3,0-0.6,0-0.8,0.1c-0.2,0-0.5,0.1-0.8,0.2l-0.3-0.4c0.2-0.2,0.4-0.4,0.5-0.5c0.1-0.2,0.2-0.4,0.3-0.7
		l5.1-14.6c0.2-0.6,0.4-1.5,0.5-2.6s0.2-2.4,0.3-3.9h0.4c0,1.5,0.1,2.7,0.3,3.9c0.1,1.1,0.3,2,0.5,2.6l5,14.6
		c0.1,0.3,0.2,0.5,0.4,0.7c0.1,0.2,0.3,0.4,0.6,0.5L549.3,83.3z M492.1,85.6c-0.5-0.7-1.1-1.4-1.8-2s-1.6-1.2-2.6-1.8l0.1-0.3
		c0.7,0.2,1.2,0.3,1.8,0.4c0.5,0.1,1,0.1,1.5,0.1c3.3,0,6.1-1.3,8.4-3.9c2.3-2.6,3.4-5.8,3.4-9.6c0-4.9-1.5-8.6-4.4-11.1
		c-3-2.6-7.3-3.9-13-3.9h-14.1v53.3h8.4V88c0-2-0.1-3.5-0.2-4.4c-0.1-1-0.3-2.1-0.6-3.3l0.4-0.1c0.4,1.1,0.9,2.1,1.3,2.9
		c0.4,0.8,1.2,1.9,2.2,3.4l13.7,20.3h9.5L492.1,85.6z M492.8,74.3c-1.4,1.2-3.5,1.9-6.5,1.9h-5.2c-0.5,0-0.8,0-1.1,0.1
		c-0.2,0.1-0.5,0.2-0.8,0.5l-0.3-0.3c0.3-0.3,0.5-0.6,0.6-0.9s0.2-0.6,0.2-0.9V62.5c-0.1-0.5-0.2-0.8-0.3-1.1
		c-0.1-0.3-0.3-0.5-0.5-0.8l0.3-0.3c0.3,0.3,0.6,0.4,0.8,0.5s0.6,0.1,1,0.1h5.2c2.9,0,5.1,0.6,6.4,1.9c1.4,1.2,2.1,3.2,2.1,5.8
		C494.9,71.1,494.2,73,492.8,74.3 M434.4,37l-3.7,10.3h6.5l6.9-10.3L434.4,37L434.4,37z M432.4,98.5c-0.5,0-0.8,0-1.1,0.1
		c-0.3,0.1-0.5,0.2-0.8,0.5l-0.3-0.3c0.2-0.3,0.3-0.5,0.4-0.8s0.2-0.6,0.2-1.1V85.1c0-0.4-0.1-0.7-0.2-1s-0.3-0.6-0.4-0.8l0.3-0.3
		c0.3,0.2,0.5,0.4,0.8,0.5c0.2,0.1,0.6,0.1,1.1,0.2h18v-8.1h-18c-0.5,0-0.8,0-1,0.1s-0.5,0.2-0.8,0.5l-0.3-0.3
		c0.2-0.4,0.4-0.7,0.5-0.9c0.1-0.3,0.1-0.6,0.1-0.9V63.2c0-0.4-0.1-0.7-0.2-1s-0.3-0.6-0.4-0.9l0.3-0.3c0.4,0.3,0.7,0.4,1,0.5
		s0.6,0.1,0.9,0.1h20.6l-0.9-8.2h-29.8v53.3h29.7l1-8.2L432.4,98.5L432.4,98.5z M396.6,60.9c-5.3-5-12-7.5-20.2-7.5h-14.3v53.3h14
		c8.4,0,15.3-2.5,20.6-7.5c5.3-5,7.9-11.4,7.9-19.1C404.6,72.3,401.9,65.9,396.6,60.9 M390.5,93.5c-3.7,3.5-8.3,5.2-13.9,5.2h-4.2
		c-0.5,0-0.9,0-1.1,0.1s-0.5,0.2-0.8,0.5l-0.3-0.3c0.3-0.3,0.4-0.5,0.5-0.7s0.1-0.6,0.1-1.1V63c0-0.4,0-0.7-0.1-0.9
		c-0.1-0.2-0.3-0.6-0.5-0.9l0.3-0.3c0.3,0.3,0.6,0.4,0.8,0.5c0.2,0.1,0.6,0.1,1,0.1h4.6c5.5,0,10,1.8,13.6,5.3s5.4,8,5.4,13.4
		C396,85.5,394.1,90,390.5,93.5 M325,37l-3.7,10.3h6.5l6.9-10.3L325,37L325,37z M323,98.5c-0.5,0-0.8,0-1.1,0.1
		c-0.2,0.1-0.5,0.2-0.8,0.5l-0.3-0.3c0.2-0.3,0.4-0.5,0.4-0.8c0.1-0.3,0.2-0.6,0.2-1.1V85.1c0-0.4-0.1-0.7-0.2-1s-0.2-0.6-0.4-0.8
		l0.3-0.3c0.3,0.2,0.5,0.4,0.7,0.5s0.6,0.1,1.1,0.2h18v-8.1h-18c-0.4,0-0.8,0-1,0.1s-0.5,0.2-0.8,0.5l-0.3-0.3
		c0.2-0.4,0.4-0.7,0.5-0.9c0.1-0.3,0.1-0.6,0.1-0.9V63.2c0-0.4-0.1-0.7-0.2-1s-0.2-0.6-0.4-0.9l0.3-0.3c0.4,0.3,0.7,0.4,1,0.5
		s0.6,0.1,0.9,0.1h20.6l-0.9-8.2h-29.8v53.3h29.7l1-8.2L323,98.5L323,98.5z M295.5,53.4h-30v53.3h8.8V85.2c0-0.4,0-0.8-0.1-1
		s-0.2-0.5-0.5-0.8l0.3-0.3c0.3,0.3,0.6,0.4,0.8,0.5c0.2,0.1,0.6,0.1,1,0.1h17.8v-8.1h-18c-0.5,0-0.9,0-1.1,0.1s-0.5,0.2-0.7,0.5
		l-0.3-0.3c0.3-0.4,0.5-0.7,0.6-0.9c0.1-0.3,0.2-0.6,0.2-0.9V63.3c-0.1-0.5-0.2-0.9-0.3-1.1c-0.1-0.2-0.3-0.5-0.5-0.7l0.3-0.3
		c0.3,0.3,0.6,0.4,0.8,0.5c0.2,0.1,0.6,0.1,1,0.1h21.2L295.5,53.4z"/>
</g>
<path class="st1" d="M29.7,0c-5.8,0-9.7,3.2-9.9,5.3c-0.2,2.4,1.3,4.7,3.4,6.3C38.4,23.3-5.4,46.1,0,92.6
	c3.8,32.9,42.2,77.6,50.1,77.6c0.3,0,0.6-0.1,0.8-0.2c6.1-3.9-18-46.9-23.5-61.1C15.2,77,33.6,56.6,40.8,44.8
	c9.5-15.6,11.8-30.4,4.4-37.5C39.4,1.8,34,0,29.7,0"/>
<path class="st2" d="M138.2,13c-0.5,0-1,0-1.6,0c-55.8,2.5-64,70-64.1,94.5c0,2.1,0.2,12.8-2.3,12.8c-0.5,0-1.1-0.4-1.9-1.5
	c-2.9-4.1-11.2-16-13.7-19.2c-0.7-0.9-1.7-1.4-2.6-1.4c-2,0-3.9,2-3,6.1c0.4,2.1,6,25.1,13.9,34.6c2.3,2.8,7.6,6.6,13,6.6
	c5.3,0,10.8-3.7,13.8-15.6c5.3-18.5-1-92.2,62.6-100.6c5-0.7,7-6.6,4-10C154.3,16.9,147.9,13,138.2,13"/>
<path class="st3" d="M172.3,79c-2-0.6-2.1-1.9-0.6-4c2.5-3.7,12.9-26.3,0.1-38.1c-1-1-2.4-2-3.9-2.7c-2.3-1.1-5.3,0.1-5.3,4
	c0.3,28.6-14,34.1-33.9,34.3h-2.4v13.1l17.7,1.2h0.3c19.1,1.5,30.6,13.9,30.6,28.3c0,17.2-14.5,28.4-30.6,28.4
	c-5.3,0-10.8-1.1-15.2-3.8c-0.8-0.5-2-1.3-2.8-2c0,2.2,0,28.1,0,28.1c6.1,2.9,13,4.6,21.9,4.6c25.7,0,57.8-18.7,57.8-51.4
	C206.1,101.9,191.8,85.1,172.3,79"/>
</svg>
