<?xml version="1.0" encoding="utf-8"?>
<!-- Generator: Adobe Illustrator 21.0.2, SVG Export Plug-In . SVG Version: 6.00 Build 0)  -->
<svg version="1.1"
	 id="F" inkscape:version="0.91 r13725" sodipodi:docname="kbs_logo_fr.svg" xmlns:cc="http://creativecommons.org/ns#" xmlns:dc="http://purl.org/dc/elements/1.1/" xmlns:inkscape="http://www.inkscape.org/namespaces/inkscape" xmlns:rdf="http://www.w3.org/1999/02/22-rdf-syntax-ns#" xmlns:sodipodi="http://sodipodi.sourceforge.net/DTD/sodipodi-0.dtd" xmlns:svg="http://www.w3.org/2000/svg"
	 xmlns="http://www.w3.org/2000/svg" xmlns:xlink="http://www.w3.org/1999/xlink" x="0px" y="0px" viewBox="0 0 204.7 90.1"
	 style="enable-background:new 0 0 204.7 90.1;" xml:space="preserve">
<sodipodi:namedview  bordercolor="#666666" borderopacity="1" gridtolerance="10" guidetolerance="10" id="namedview171" inkscape:current-layer="F" inkscape:cx="155.89999" inkscape:cy="63.799999" inkscape:pageopacity="0" inkscape:pageshadow="2" inkscape:window-height="706" inkscape:window-maximized="1" inkscape:window-width="1366" inkscape:window-x="-8" inkscape:window-y="-8" inkscape:zoom="1.148172" objecttolerance="10" pagecolor="#ffffff" showgrid="false">
	</sodipodi:namedview>
<g id="g5" transform="translate(-10.000001,0.400002)">
	<polygon id="polygon7" points="57.1,65.3 57.1,4.1 57.1,4.1 58,4.1 58,65.3 	"/>
	<path d="M45.6,51.1c-1.2-4-4.7-6.4-8.3-6.8c0.5-0.2,4.6-2.2,5.8-4.8c1.1-2.5,1.2-4.7,0.1-7c-1.8-4.1-6.2-4.8-11.1-4.4
		c-3.2,0.2-6.2,0.2-9.4-0.1v0.9c0.6-0.1,1.9-0.1,2.9,0.4s1,1.1,1.1,1.8c0,0,0.2,2.7,0.3,4.5c0.1,0.6,0.1,1,0.1,1.6
		c0.1,3.9,0.1,9.9,0.1,9.9s0,5.4-0.1,8.9c-0.1,2.7-0.3,6.5-0.7,7c-0.9,1.3-2.2,1-3.1,1.2l0.2,1c0,0,0.9-0.1,2.3-0.1
		c3.1,0,4.8,0.2,8,0.3c4.7,0.1,7.3-1,9.5-3.3C45.7,59.6,46.8,55.3,45.6,51.1z M40.5,60.6c-2,2.6-4.7,3.4-8,2.8
		c-0.8-0.1-1.1-0.2-2-0.6c0,0-0.2-5.8-0.2-9.5c-0.1-6.1,0-9.5,0-15.5c0-3.1,0.1-7.9,0.1-7.9c2.2-0.5,4.9-0.3,6.7,0.9
		c0.9,0.6,1.3,1,1.9,1.8c1.8,2.4,1.7,5.7,0.7,7.5c-1.3,2.5-3.7,3.7-6.1,3.7c-0.7,0-1.1-0.1-1.7-0.3l-0.3,1.9
		c0.9-0.3,1.4-0.3,2.4-0.3c3.3,0,5.1,1.9,6.8,4.6C42.9,53.1,42.3,58.2,40.5,60.6z"/>
	<path id="path11" inkscape:connector-curvature="0" d="M28.8,5.3c0-0.6,0.5-1.1,1.1-1.1S31,4.7,31,5.3s-0.5,1.1-1.1,1.1
		S28.8,5.9,28.8,5.3L28.8,5.3z"/>
	<path id="path13" inkscape:connector-curvature="0" d="M26.3,5.5c0-0.6,0.5-1.1,1.1-1.1s1.1,0.5,1.1,1.1S28,6.6,27.4,6.6
		S26.3,6.1,26.3,5.5L26.3,5.5z"/>
	<path id="path15" inkscape:connector-curvature="0" d="M25.2,9.8c0-0.6,0.5-1.1,1.1-1.1s1.1,0.5,1.1,1.1s-0.5,1.1-1.1,1.1
		S25.2,10.4,25.2,9.8L25.2,9.8z"/>
	<path id="path17" inkscape:connector-curvature="0" d="M24.6,7.4c0-0.6,0.5-1.1,1.1-1.1s1.1,0.5,1.1,1.1s-0.5,1.1-1.1,1.1
		S24.6,8,24.6,7.4L24.6,7.4z"/>
	<path id="path19" inkscape:connector-curvature="0" d="M22.3,6.3c0-0.6,0.5-1.1,1.1-1.1s1.1,0.5,1.1,1.1S24,7.4,23.4,7.4
		C22.8,7.5,22.3,6.9,22.3,6.3L22.3,6.3z"/>
	<path id="path21" inkscape:connector-curvature="0" d="M19.9,7.3c0-0.6,0.5-1.1,1.1-1.1s1.1,0.5,1.1,1.1S21.6,8.4,21,8.4
		S19.9,7.9,19.9,7.3L19.9,7.3z"/>
	<path id="path23" inkscape:connector-curvature="0" d="M18.3,9.3c0-0.6,0.5-1.1,1.1-1.1s1.1,0.5,1.1,1.1s-0.5,1.1-1.1,1.1
		S18.3,9.9,18.3,9.3L18.3,9.3z"/>
	<path id="path25" inkscape:connector-curvature="0" d="M18.5,11.9c0-0.6,0.5-1.1,1.1-1.1s1.1,0.5,1.1,1.1S20.2,13,19.6,13
		S18.5,12.5,18.5,11.9L18.5,11.9z"/>
	<path id="path27" inkscape:connector-curvature="0" d="M24.5,22.2c0-0.8,4.2-1.4,9.4-1.4s9.4,0.6,9.4,1.4s-4.2,1.4-9.4,1.4
		S24.5,22.9,24.5,22.2L24.5,22.2z"/>
	<path id="path29" inkscape:connector-curvature="0" d="M33.9,5.9c-1,0-1.8-0.7-1.9-1.7c0.7-0.3,1.2-0.3,1.9-0.3
		c0.8,0,1.3,0.1,1.9,0.3C35.7,5.2,34.9,5.9,33.9,5.9L33.9,5.9z"/>
	<path id="path31" inkscape:connector-curvature="0" d="M36.7,5.3c0-0.6,0.5-1.1,1.1-1.1s1.1,0.5,1.1,1.1s-0.5,1.1-1.1,1.1
		S36.7,5.9,36.7,5.3L36.7,5.3z"/>
	<path id="path33" inkscape:connector-curvature="0" d="M39.2,5.5c0-0.6,0.5-1.1,1.1-1.1s1.1,0.5,1.1,1.1s-0.5,1.1-1.1,1.1
		S39.2,6.1,39.2,5.5L39.2,5.5z"/>
	<path id="path35" inkscape:connector-curvature="0" d="M40.8,7.3c0-0.6,0.5-1.1,1.1-1.1S43,6.7,43,7.3s-0.5,1.1-1.1,1.1
		C41.4,8.4,40.8,7.9,40.8,7.3L40.8,7.3z"/>
	<path id="path37" inkscape:connector-curvature="0" d="M43.2,6.2c0-0.6,0.5-1.1,1.1-1.1s1.1,0.5,1.1,1.1s-0.5,1.1-1.1,1.1
		C43.7,7.4,43.2,6.9,43.2,6.2L43.2,6.2z"/>
	<path id="path39" inkscape:connector-curvature="0" d="M40.3,9.7c0-0.6,0.5-1.1,1.1-1.1s1.1,0.5,1.1,1.1s-0.5,1.1-1.1,1.1
		S40.3,10.3,40.3,9.7L40.3,9.7z"/>
	<path id="path41" inkscape:connector-curvature="0" d="M45.6,7.2c0-0.6,0.5-1.1,1.1-1.1s1.1,0.5,1.1,1.1s-0.5,1.1-1.1,1.1
		S45.6,7.8,45.6,7.2L45.6,7.2z"/>
	<path id="path43" inkscape:connector-curvature="0" d="M47.2,9.2c0-0.6,0.5-1.1,1.1-1.1s1.1,0.5,1.1,1.1s-0.5,1.1-1.1,1.1
		S47.2,9.8,47.2,9.2L47.2,9.2z"/>
	<path id="path45" inkscape:connector-curvature="0" d="M47,11.7c0-0.6,0.5-1.1,1.1-1.1s1.1,0.5,1.1,1.1s-0.5,1.1-1.1,1.1
		C47.5,12.9,47,12.3,47,11.7L47,11.7z"/>
	<path id="path47" inkscape:connector-curvature="0" d="M35.8,3.5c-0.1-0.6-0.5-1.1-1.1-1.4l-0.5-0.9l0.1-0.1l0.9,0.5V0.1l-0.9,0.5
		l-0.1-0.1l0.5-0.9h-1.6l0.5,0.9l-0.1,0.1l-0.9-0.5v1.4L33.5,1l0.1,0.1l-0.5,1c-0.6,0.3-1,0.8-1.1,1.4c0,0,0.1-0.3,1.4-0.3v-1
		c0.2-0.1,0.3-0.1,0.5-0.1s0.3,0,0.5,0.1v1C35.7,3.2,35.8,3.5,35.8,3.5L35.8,3.5z"/>
	<path id="path49" inkscape:connector-curvature="0" d="M33.9,10.1c-1,0-0.9,0.1-1.3,0.2c0-1.6-0.3-3.1-1.4-4.5
		c-0.1-0.4,0.5-0.6,0.5-0.6C32.1,6,33,6.5,33.9,6.5s1.8-0.5,2.2-1.3c0,0,0.6,0.2,0.5,0.6c-1.1,1.4-1.4,2.9-1.4,4.5
		C34.8,10.2,34.9,10.1,33.9,10.1L33.9,10.1L33.9,10.1z"/>
	<path id="path51" inkscape:connector-curvature="0" d="M33.9,10.5c0.4,0,1,0.1,1.2,0.3c0,0.6-0.3,0.6-0.5,0.8
		c-0.3,0.3-0.2,0.9,0.3,1c0.2,0,0.5-0.1,0.7-0.4c0.1-0.2,0.1-0.4,0.3-0.4c0.3-0.1,0.4,0.3,0.5,0.6c0.1,0.3-0.1,1.7-0.7,1.6
		c-0.4-0.1-0.2-0.6-0.7-0.7c-0.3-0.1-0.4-0.2-0.7,0c-0.4,0.2-0.2,1,0,1.5c0.2,0.3,0.3,0.6,0.6,0.7c1.1,0.5,1.8-1.7,1.9-2.1
		c-0.2-0.1-0.3-0.3-0.2-0.5s0.2-0.2,0.3-0.3c0.2,0,0.4,0.1,0.5,0.3c0.1,0.2,0,0.3-0.1,0.5c-0.1,0.1-0.2,0.1-0.3,0.1
		c-0.1,0.5-0.2,2,0.6,2.3c0.3,0.1,0.9-0.3,1.2-0.8s0.7-1.4,0.2-1.5c-0.2-0.1-0.4-0.1-0.6,0.1c-0.4,0.3-0.4,0.7-0.8,0.5
		c-0.2-0.1-0.1-0.6,0-1c0.1-0.5,0.3-1.1,0.7-1.1s0.3,0.7,0.8,0.8c0.2,0.1,0.4-0.1,0.5-0.2c0.2-0.2,0.1-0.4,0.1-0.6
		c0-0.3-0.3-0.4-0.2-0.7c0-0.8,2-0.5,2.2,0.3c0.1,0.4-1.2,0.7-1,1.4c0,0.2,0.4,0.2,0.6,0.1c0.4-0.1,0.4-0.5,0.8-0.5
		c0.8-0.1-0.4,2.5-0.8,2c-0.2-0.2-0.1-0.5-0.3-0.6c-0.1-0.1-0.1-0.1-0.2-0.1c-0.6-0.2-1.1,0.7-1,1.3c0,0.4,0.1,0.8,0.5,0.9
		c0.5,0.1,1.5-0.6,2.2-1.8c-0.1-0.2-0.1-0.4,0-0.5c0.1-0.2,0.2-0.2,0.4-0.2c0.1,0,0.2,0.1,0.3,0.2c0.1,0.2,0.1,0.4,0,0.5
		s-0.2,0.2-0.4,0.2c-0.3,0.5-1,2-0.1,2.2c0.5,0.1,1.3-0.5,1.5-0.6c0.4-0.4,1.2-1,0.8-1.2c-0.6-0.3-1.1,0.6-1.5,0.2
		c-0.2-0.3,0.1-0.9,0.4-1.3c0.2-0.3,0.3-0.5,0.6-0.6c0.5-0.1,0.3,0.9,0.8,1.1c1,0.3,0.3-1.5,1.2-1.6c0.4,0,0.7,0,0.8,0.3
		c0.1,0.2,0,0.6,0,0.6c-2.1,1.9-3,3.4-4,4.9c-0.3-0.9-4.2-1.6-9.4-1.6s-9.1,0.7-9.4,1.6c-0.6-1.1-1.9-3-4-4.9c0,0-0.1-0.4,0-0.6
		c0.2-0.3,0.4-0.4,0.8-0.3c0.9,0.1,0.1,1.9,1.2,1.6c0.5-0.1,0.3-1.2,0.8-1.1c0.3,0.1,0.4,0.3,0.6,0.6c0.3,0.5,0.6,1.1,0.4,1.3
		c-0.4,0.4-0.9-0.6-1.5-0.2c-0.4,0.3,0.4,0.8,0.8,1.2c0.1,0.1,1,0.8,1.5,0.6c0.8-0.3,0.1-1.7-0.1-2.2c-0.2,0-0.3,0-0.4-0.2
		s-0.1-0.4,0-0.5s0.2-0.1,0.3-0.2c0.2,0,0.3,0.1,0.4,0.2c0.1,0.2,0.1,0.3,0,0.5c0.7,1.2,1.7,1.9,2.2,1.8c0.4-0.1,0.5-0.5,0.5-0.9
		c0.1-0.7-0.4-1.6-1-1.3c-0.1,0-0.2,0.1-0.2,0.1c-0.2,0.2-0.1,0.4-0.3,0.6c-0.5,0.6-1.7-2.1-0.8-2c0.4,0.1,0.4,0.4,0.8,0.5
		c0.2,0.1,0.6,0.1,0.6-0.1c0.1-0.7-1.2-1-1-1.4c0.2-0.8,2.1-1.1,2.2-0.3c0,0.3-0.2,0.4-0.2,0.7c0,0.2,0,0.4,0.1,0.6s0.3,0.3,0.5,0.2
		c0.5-0.1,0.3-0.8,0.8-0.8c0.4,0,0.5,0.6,0.7,1.1c0.1,0.4,0.2,0.9,0,1c-0.3,0.1-0.4-0.2-0.8-0.5c-0.2-0.2-0.4-0.2-0.6-0.1
		c-0.5,0.1-0.1,1,0.2,1.5s0.9,0.9,1.2,0.8c0.8-0.3,0.7-1.8,0.6-2.3c-0.1,0-0.2-0.1-0.3-0.1c-0.1-0.1-0.1-0.3-0.1-0.5
		c0.1-0.2,0.3-0.3,0.5-0.3s0.3,0.1,0.3,0.3c0.1,0.2,0,0.4-0.2,0.5c0.1,0.4,0.8,2.5,1.9,2.1c0.3-0.2,0.5-0.4,0.6-0.7
		c0.3-0.5,0.4-1.4,0-1.5c-0.3-0.1-0.4-0.1-0.7,0c-0.5,0.2-0.3,0.7-0.7,0.7c-0.6,0.1-0.8-1.3-0.7-1.6c0.1-0.3,0.2-0.7,0.5-0.6
		c0.2,0,0.2,0.2,0.3,0.4c0.2,0.2,0.5,0.4,0.7,0.4c0.5-0.1,0.6-0.8,0.3-1c-0.2-0.2-0.5-0.3-0.5-0.8C32.8,10.6,33.5,10.5,33.9,10.5
		L33.9,10.5z"/>
	<path id="path53" inkscape:connector-curvature="0" d="M33.9,17.6L32,18.7l1.9,1.1l1.9-1.1L33.9,17.6L33.9,17.6z M40.3,19.9
		l-2.9-0.4V18l2.9,0.3V19.9L40.3,19.9z M41.5,19.5l1.1-0.3l0.8,1.2l-0.7,0.4L41.5,19.5L41.5,19.5z M27.4,19.9l2.9-0.4V18l-2.9,0.3
		L27.4,19.9L27.4,19.9z M26.2,19.5l-1.1-0.3l-0.8,1.2l0.7,0.4L26.2,19.5L26.2,19.5z M33.9,17.5c5.2,0,9.4,0.5,9.3,1.7
		c0,0.3,0.3,0.7,0.8,1.3c-0.2,0.2-0.9,0.2-0.8,0.9c-0.7-0.7-5.6-1.2-9.2-1.2c-3.7,0-8.5,0.4-9.2,1.2c0.1-0.6-0.6-0.6-0.8-0.9
		c0.5-0.7,0.8-1,0.8-1.3C24.5,18,28.7,17.5,33.9,17.5L33.9,17.5z"/>
	<polygon id="polygon55" points="10,65.3 10,4.1 10,4.1 10.9,4.1 10.9,65.3 	"/>
</g>
<g id="g57" transform="translate(-10.000001,0.400002)">
	<path id="path59" inkscape:connector-curvature="0" d="M71.3,35.8v5.4h-1.6V29.1h6.9v1.4h-5.3v4h5.3v1.3
		C76.6,35.8,71.3,35.8,71.3,35.8z"/>
	<path id="path61" inkscape:connector-curvature="0" d="M82.9,41.4c-2.4,0-4-1.6-4-4.2c0-2.2,1.6-4,4.1-4c2.4,0,4,1.6,4,4.1
		S85.2,41.4,82.9,41.4z M82.8,34.3c-1.6,0-2.5,1.3-2.5,2.8c0,1.7,0.8,3.2,2.7,3.2c1.6,0,2.3-1.3,2.3-2.8
		C85.4,35.6,84.4,34.3,82.8,34.3z"/>
	<path id="path63" inkscape:connector-curvature="0" d="M95,41.2c0,0,0-4.5,0-5.2c-0.1-1.1-0.6-1.6-1.7-1.6c-1.2,0-1.9,0.6-1.9,0.6
		v6.2h-1.5v-7.9h1.5v0.9c0.4-0.3,1.3-1,2.6-1c1.4,0,2.4,0.8,2.5,2.5c0.1,1.2,0,5.6,0,5.6L95,41.2L95,41.2z"/>
	<path id="path65" inkscape:connector-curvature="0" d="M105.2,41.2v-0.7c-0.4,0.3-1.1,0.8-2.4,0.8c-1.9,0-3.4-1.6-3.4-3.9
		c0-2.5,1.7-4.3,4.1-4.3c1,0,1.6,0.3,1.6,0.3v-5h1.5v12.8C106.6,41.2,105.2,41.2,105.2,41.2z M105.2,34.7c0,0-0.6-0.4-1.6-0.4
		c-1.3,0-2.6,0.7-2.6,3c0,1.9,0.9,3,2.6,3c1,0,1.6-0.6,1.6-0.6V34.7z"/>
	<path id="path67" inkscape:connector-curvature="0" d="M115,41.4c-0.8,0-1.1-0.9-1.1-0.9s-0.9,0.9-2.1,0.9s-2.2-0.8-2.2-2.1
		s0.9-1.9,2-2.3c0.9-0.3,2.2-0.4,2.2-0.4s0-0.2,0-0.6c0-0.4,0-0.9-0.3-1.2s-0.8-0.4-1.2-0.4c-1.4,0-2.3,0.9-2.3,0.9l-0.3-1.1
		c0,0,1.5-1,3-1c1.6,0,2.4,0.9,2.4,1.9c0,1.6-0.1,3.1-0.1,3.9c0,0.9,0.2,1.3,0.7,1.3c0.4,0,0.8-0.2,0.8-0.2v0.8
		C116.6,40.9,115.7,41.4,115,41.4z M112.4,37.7c-0.8,0.2-1.4,0.6-1.4,1.3c0,1,0.8,1.3,1.4,1.3s1-0.4,1.3-0.7v-2.2
		C113.8,37.5,113.1,37.5,112.4,37.7z"/>
	<path id="path69" inkscape:connector-curvature="0" d="M120.8,41.4c-0.9,0-1.4-0.4-1.6-1s-0.2-1.5-0.2-2.3c0-1.6,0.1-3.4,0.1-3.4
		h-1.2v-1.1h1.2l0.5-1.9h1v1.9h2.3v1h-2.3c0,0,0,1.5-0.1,2.9c0,1,0,1.6,0.1,2s0.4,0.6,0.8,0.6c0.7,0,1.3-0.4,1.6-0.7l0.2,1
		C123.1,40.5,122.1,41.4,120.8,41.4z"/>
	<path id="path71" inkscape:connector-curvature="0" d="M126.5,31.1c-0.5,0-1-0.4-1-1c0-0.5,0.4-1,1-1c0.5,0,1,0.4,1,1
		C127.5,30.6,127,31.1,126.5,31.1z M125.8,41.2v-7.9h1.5v7.9H125.8z"/>
	<path id="path73" inkscape:connector-curvature="0" d="M134.2,41.4c-2.4,0-4-1.6-4-4.2c0-2.2,1.6-4,4.1-4c2.4,0,4,1.6,4,4.1
		S136.6,41.4,134.2,41.4z M134.2,34.3c-1.6,0-2.5,1.3-2.5,2.8c0,1.7,0.8,3.2,2.7,3.2c1.6,0,2.3-1.3,2.3-2.8
		C136.8,35.6,135.8,34.3,134.2,34.3z"/>
	<path id="path75" inkscape:connector-curvature="0" d="M146.4,41.2c0,0,0-4.5,0-5.2c-0.1-1.1-0.6-1.6-1.7-1.6
		c-1.2,0-1.9,0.6-1.9,0.6v6.2h-1.5v-7.9h1.5v0.9c0.4-0.3,1.3-1,2.6-1c1.4,0,2.4,0.8,2.5,2.5c0.1,1.2,0,5.6,0,5.6L146.4,41.2
		L146.4,41.2z"/>
	<path id="path77" inkscape:connector-curvature="0" d="M79.6,65.2c0,0-0.4,0.1-0.9,0.1c-0.4,0-0.8-0.1-1.2-0.4
		c-0.5-0.3-1.1-0.9-2.1-2c-0.8-0.9-2.1-2.5-2.1-2.5l-2-0.1v5h-1.6V53.1c0,0,1.5,0,3,0c1.2,0,2.1,0.1,2.9,0.5c1,0.5,1.6,1.4,1.6,2.7
		c0,2.4-1.9,3.3-2.3,3.5c0,0,0.9,1.2,2,2.3c0.3,0.3,1,1.1,1.7,1.6c0.8,0.6,1.2,0.5,1.2,0.5L79.6,65.2z M74.7,54.8
		c-0.4-0.4-1.2-0.6-2.1-0.6s-1.3,0-1.3,0v4.9c0,0,0.7,0.1,1.4,0.1c1.7,0,2.7-0.9,2.7-2.7C75.5,56,75.3,55.3,74.7,54.8z"/>
	<path id="path79" inkscape:connector-curvature="0" d="M85.4,65.4c-2.4,0-4-1.6-4-4.2c0-2.2,1.6-4,4.1-4c2.4,0,4,1.6,4,4.1
		S87.7,65.4,85.4,65.4z M85.4,58.3c-1.6,0-2.5,1.3-2.5,2.8c0,1.7,0.8,3.2,2.7,3.2c1.6,0,2.3-1.3,2.3-2.8
		C87.9,59.7,87,58.3,85.4,58.3z"/>
	<path id="path81" inkscape:connector-curvature="0" d="M93.1,55.1c-0.5,0-1-0.4-1-1c0-0.5,0.4-1,1-1s1,0.4,1,1
		C94.1,54.6,93.6,55.1,93.1,55.1z M92.4,65.2v-7.9h1.5v7.9H92.4z"/>
	<path id="path83" inkscape:connector-curvature="0" d="M105.7,65.3c-1.3,0-3.4,0-3.4,0V53.1c0,0,2,0,3.2,0c2.3,0,4,0.8,4,2.9
		c0,1.9-1.8,2.7-1.8,2.7s2.7,0.5,2.7,2.9C110.4,64.3,108.2,65.3,105.7,65.3z M105.3,54.2c-0.6,0-1.4,0-1.4,0v4.1
		c0,0,0.5,0.1,1.3,0.1c1.9,0,2.6-1,2.6-2.2C107.7,54.9,106.8,54.2,105.3,54.2z M107.6,60c-0.7-0.5-1.5-0.5-2.5-0.5
		c-0.9,0-1.2,0-1.2,0v4.6c0,0,0.5,0.1,1.9,0.1c1.5,0,2.9-0.6,2.9-2.3C108.6,60.9,108.2,60.4,107.6,60z"/>
	<path id="path85" inkscape:connector-curvature="0" d="M118.3,65.4c-0.8,0-1.1-0.9-1.1-0.9s-0.9,0.9-2.1,0.9s-2.2-0.8-2.2-2.1
		c0-1.3,0.9-1.9,2-2.3c0.9-0.3,2.2-0.4,2.2-0.4s0-0.2,0-0.6s0-0.9-0.3-1.2c-0.3-0.3-0.8-0.4-1.2-0.4c-1.4,0-2.3,0.9-2.3,0.9
		l-0.2-1.1c0,0,1.5-1,3-1c1.6,0,2.4,0.9,2.4,1.9c0,1.6-0.1,3.1-0.1,3.9c0,0.9,0.2,1.3,0.7,1.3c0.4,0,0.8-0.2,0.8-0.2v0.8
		C119.9,64.9,119,65.4,118.3,65.4L118.3,65.4z M115.7,61.7c-0.8,0.2-1.4,0.6-1.4,1.3c0,1,0.8,1.3,1.4,1.3s1-0.4,1.3-0.7v-2.2
		C117.1,61.5,116.4,61.5,115.7,61.7L115.7,61.7z"/>
	<path id="path87" inkscape:connector-curvature="0" d="M127.3,65.2v-0.8c-0.4,0.3-1.3,0.9-2.6,0.9c-1.4,0-2.3-0.7-2.4-2.4
		c-0.1-1.2,0-5.5,0-5.5h1.5c0,0,0,4.5,0,5.2c0.1,1.1,0.5,1.6,1.7,1.6s1.9-0.7,1.9-0.7v-6.1h1.5v7.8H127.3L127.3,65.2z"/>
	<path id="path89" inkscape:connector-curvature="0" d="M137.4,65.2v-0.7c-0.4,0.3-1.1,0.8-2.4,0.8c-1.9,0-3.4-1.6-3.4-3.9
		c0-2.5,1.7-4.3,4.1-4.3c1,0,1.6,0.3,1.6,0.3v-5h1.5v12.8H137.4L137.4,65.2z M137.4,58.7c0,0-0.6-0.5-1.6-0.5c-1.3,0-2.6,0.7-2.6,3
		c0,1.9,0.9,3,2.6,3c1,0,1.6-0.6,1.6-0.6V58.7z"/>
	<path id="path91" inkscape:connector-curvature="0" d="M145.9,65.4c-2.4,0-4-1.6-4-4.2c0-2.2,1.6-4,4.1-4c2.4,0,4,1.6,4,4.1
		S148.3,65.4,145.9,65.4z M145.9,58.3c-1.6,0-2.5,1.3-2.5,2.8c0,1.7,0.8,3.2,2.7,3.2c1.6,0,2.3-1.3,2.3-2.8
		C148.5,59.7,147.5,58.3,145.9,58.3z"/>
	<path id="path93" inkscape:connector-curvature="0" d="M158,65.2v-0.8c-0.4,0.3-1.3,0.9-2.6,0.9c-1.4,0-2.3-0.7-2.4-2.4
		c-0.1-1.2,0-5.5,0-5.5h1.5c0,0,0,4.5,0,5.2c0.1,1.1,0.5,1.6,1.7,1.6s1.9-0.7,1.9-0.7v-6.1h1.5v7.8H158L158,65.2z"/>
	<path id="path95" inkscape:connector-curvature="0" d="M164,55.1c-0.5,0-1-0.4-1-1c0-0.5,0.4-1,1-1c0.5,0,1,0.4,1,1
		C164.9,54.6,164.5,55.1,164,55.1z M163.2,65.2v-7.9h1.5v7.9H163.2z"/>
	<path id="path97" inkscape:connector-curvature="0" d="M173.6,65.2c0,0,0-4.5,0-5.2c-0.1-1.1-0.6-1.6-1.7-1.6
		c-1.2,0-1.9,0.6-1.9,0.6v6.2h-1.5v-7.9h1.5v0.9c0.4-0.3,1.3-1,2.6-1c1.4,0,2.4,0.8,2.5,2.5c0.1,1.2,0,5.6,0,5.6L173.6,65.2
		L173.6,65.2z"/>
</g>
<g id="g99" transform="translate(-10.000001,0.400002)">
	<path id="path101" inkscape:connector-curvature="0" d="M16.4,85.9l-0.7-3.2h-2.8l-1.6,3.2h-1.1l4.6-8.7h0.8l2,8.7
		C17.6,85.9,16.4,85.9,16.4,85.9z M14.8,78.9l-1.5,3h2.2L14.8,78.9z"/>
	<path id="path103" inkscape:connector-curvature="0" d="M23.6,82.9c-0.3,1.4-0.4,1.7-0.4,2.5c0,0.3,0.1,1,0.1,1.3
		c0,1-0.1,1.7-0.8,2.3c-0.5,0.4-1.2,0.7-2.1,0.7c-1.5,0-2.4-0.9-2.4-0.9l0.3-0.8c0,0,1,0.9,2.3,0.9c0.8,0,1.2-0.3,1.6-0.6
		c0.3-0.3,0.3-0.9,0.3-1.5s-0.1-1-0.1-1.3c0-0.7,0.1-0.9,0.1-0.9s-1,1.6-2.7,1.6c-0.7,0-0.9-0.6-0.9-1.5c0-1.3,0.5-3,1.6-3.9
		c0.5-0.4,1-0.5,1.6-0.5c0.8,0,1.2,0.4,1.2,0.4l0.2-0.4h0.6C24.2,80.2,23.9,81.5,23.6,82.9z M22,80.9c-0.4,0-0.8,0.2-1.1,0.5
		c-0.6,0.6-1,2-1,3.1c0,0.6,0.2,0.7,0.5,0.7c0.4,0,0.9-0.2,1.4-0.8c0.5-0.5,0.9-1.1,1-1.6l0.3-1.6C22.9,81.1,22.6,80.9,22,80.9z"/>
	<path id="path105" inkscape:connector-curvature="0" d="M26,85.9h-0.9l0.9-5.7h0.9L26,85.9z M26.7,78.6c-0.5,0-0.5-0.4-0.5-0.6
		c0-0.5,0.3-0.8,0.7-0.8c0.4,0,0.5,0.2,0.5,0.6S27.1,78.6,26.7,78.6z"/>
	<path id="path107" inkscape:connector-curvature="0" d="M31.9,81.5c0,0-0.3-0.4-0.7-0.4c-0.7,0-1.4,0.9-1.9,2.5
		c-0.1,0.3-0.4,2.3-0.4,2.3H28c0.1-0.9,0.8-4.2,0.9-5.7h1c-0.1,0.7-0.3,1.7-0.3,1.7c0.5-1.1,1.3-1.8,2-1.8c0.6,0,0.9,0.5,0.9,0.5
		L31.9,81.5z"/>
	<path id="path109" inkscape:connector-curvature="0" d="M37.6,83.2c-0.8,0.3-1.7,0.4-1.7,0.4s0,0.2,0,0.4c0,0.7,0.3,1.2,1,1.2
		c1.2,0,2.2-1,2.2-1l0.4,0.7c0,0-1.2,1.2-2.8,1.2c-1,0-1.8-0.5-1.8-1.9c0-1.9,1-4,3.1-4c0.9,0,1.5,0.4,1.5,1.2
		C39.5,82.3,38.8,82.8,37.6,83.2z M37.8,80.9c-0.7,0-1.5,0.6-1.8,2c0,0,0.5-0.1,1.3-0.3c0.7-0.2,1.2-0.5,1.2-1.1
		C38.5,81,38.1,80.9,37.8,80.9z"/>
	<path id="path111" inkscape:connector-curvature="0" d="M44.4,85.9c-0.4,0-0.6-0.1-0.6-0.1c0.3-2,0.7-3.9,0.7-4.4
		c0-0.3,0-0.4-0.3-0.4c-0.9,0-2.2,1.4-2.4,2.4c-0.1,0.4-0.5,2.5-0.5,2.5h-0.9c0.1-0.9,0.8-4.5,1-5.7h1c-0.1,0.7-0.3,1.6-0.3,1.6
		s1.1-1.8,2.7-1.8c0.6,0,0.9,0.4,0.9,0.9s-0.4,2.6-0.6,4c0.4,0,1-0.3,1-0.3l0.3,0.6C46.1,85.4,45.5,85.9,44.4,85.9z"/>
	<path id="path113" inkscape:connector-curvature="0" d="M50.9,81.2c0,0-0.5-0.3-1.3-0.3c-0.7,0-1.1,0.3-1.1,0.7
		c0,0.5,0.3,0.7,1,1.1c0.4,0.3,1.2,0.8,1.2,1.6c0,1.2-0.8,1.7-2.1,1.7c-1,0-1.7-0.5-1.7-0.5l0.1-0.9c0,0,0.8,0.7,1.7,0.7
		c0.7,0,1.1-0.2,1.1-0.7c0-0.4-0.3-0.8-1-1.2c-0.7-0.4-1.2-0.9-1.2-1.6c0-1.1,0.9-1.7,2-1.7c0.9,0,1.3,0.2,1.3,0.2V81.2z"/>
	<path id="path115" inkscape:connector-curvature="0" d="M54.5,83.2c-0.8,0.3-1.7,0.4-1.7,0.4s0,0.2,0,0.4c0,0.7,0.3,1.2,1,1.2
		c1.2,0,2.2-1,2.2-1l0.4,0.7c0,0-1.2,1.2-2.8,1.2c-1,0-1.8-0.5-1.8-1.9c0-1.9,1-4,3.1-4c0.9,0,1.5,0.4,1.5,1.2
		C56.4,82.3,55.7,82.8,54.5,83.2z M54.7,80.9c-0.7,0-1.5,0.6-1.8,2c0,0,0.5-0.1,1.3-0.3c0.7-0.2,1.2-0.5,1.2-1.1
		C55.4,81,55.1,80.9,54.7,80.9z"/>
	<path id="path117" inkscape:connector-curvature="0" d="M64.7,85.9c-0.4,0-0.6-0.1-0.6-0.1c0.3-2,0.7-3.9,0.7-4.4
		c0-0.3,0-0.4-0.3-0.4c-1,0-2.2,1.6-2.4,2.2c-0.2,1-0.4,2.1-0.5,2.7h-1c0.3-2,0.7-3.9,0.7-4.5c0-0.3,0-0.4-0.3-0.4
		c-0.9,0-2.2,1.4-2.4,2.4c-0.1,0.4-0.5,2.5-0.5,2.5h-0.9c0.1-0.9,0.8-4.5,1-5.7h1c-0.1,0.7-0.3,1.6-0.3,1.6S60,80,61.6,80
		c0.6,0,0.8,0.4,0.8,0.9c0,0.2-0.1,0.8-0.1,0.8s1.1-1.7,2.6-1.7c0.6,0,0.9,0.4,0.9,0.9s-0.4,2.6-0.6,4c0.4,0,1-0.3,1-0.3l0.3,0.6
		C66.4,85.4,65.8,85.9,64.7,85.9z"/>
	<path id="path119" inkscape:connector-curvature="0" d="M69.5,86.1c-1.3,0-2.1-0.6-2.1-0.6l1.5-8.7h0.9l-0.9,4.9
		c0.2-0.4,1.1-1.4,2.3-1.4c0.9,0,1.5,0.6,1.5,2C72.7,84.3,71.7,86.1,69.5,86.1z M71,81c-1,0-2,1.1-2.4,2.4l-0.3,1.5
		c0,0,0.5,0.4,1.3,0.4c1.4,0,2.1-1.3,2.1-3.1C71.7,81.4,71.5,81,71,81z"/>
	<path id="path121" inkscape:connector-curvature="0" d="M74.7,85.9h-0.9l1.5-9.2h0.9L74.7,85.9z"/>
	<path id="path123" inkscape:connector-curvature="0" d="M79.4,83.2c-0.8,0.3-1.7,0.4-1.7,0.4s0,0.2,0,0.4c0,0.7,0.3,1.2,1,1.2
		c1.2,0,2.2-1,2.2-1l0.4,0.7c0,0-1.2,1.2-2.8,1.2c-1,0-1.8-0.5-1.8-1.9c0-1.9,1-4,3.1-4c0.9,0,1.5,0.4,1.5,1.2
		C81.2,82.3,80.5,82.8,79.4,83.2z M79.5,80.9c-0.7,0-1.5,0.6-1.8,2c0,0,0.5-0.1,1.3-0.3c0.7-0.2,1.2-0.5,1.2-1.1
		C80.2,81,79.9,80.9,79.5,80.9z"/>
	<path id="path125" inkscape:connector-curvature="0" d="M86.8,86.1c-0.7,0-1.2-0.2-1.2-0.2L85,89.6h-0.9c0,0,0.5-2.9,0.8-4.7
		c0.3-1.8,0.7-4.6,0.7-4.6h0.9l-0.2,1.3c0.2-0.4,1.1-1.5,2.3-1.5c0.9,0,1.5,0.6,1.5,2C90.1,83.9,89.2,86.1,86.8,86.1z M88.3,81
		c-0.9,0-2,1.1-2.3,2.4L85.7,85c0,0,0.4,0.4,1.3,0.4c1.4,0,2.1-1.4,2.1-3.1C89.1,81.4,88.8,81,88.3,81z"/>
	<path id="path127" inkscape:connector-curvature="0" d="M93.6,86.1c-1.2,0-2.5-0.6-2.5-2.5s1.2-3.4,3-3.4c1.1,0,2.4,0.4,2.4,2.5
		C96.6,84.4,95.5,86.1,93.6,86.1z M94.1,80.9c-0.8,0-1.9,0.7-1.9,2.7c0,1.2,0.7,1.7,1.5,1.7c0.9,0,1.9-0.9,1.9-2.7
		C95.6,81.4,94.9,80.9,94.1,80.9z"/>
	<path id="path129" inkscape:connector-curvature="0" d="M101.6,86c-0.4,0-0.6-0.1-0.6-0.1l0.3-1.6c0,0-0.3,0.5-0.8,0.9
		S99.4,86,98.6,86c-0.6,0-0.8-0.4-0.8-1c0-0.5,0.5-3.2,0.7-4.8h0.9c-0.3,1.9-0.7,3.9-0.7,4.5c0,0.3,0,0.4,0.3,0.4
		c0.9,0,2.2-1.5,2.4-2.4c0.1-0.5,0.5-2.5,0.5-2.5h0.9c0,0-0.3,1.6-0.5,2.6c-0.2,1.7-0.2,2.4-0.2,2.4c0.4,0,1-0.3,1-0.3l0.3,0.6
		C103.3,85.5,102.7,86,101.6,86z"/>
	<path id="path131" inkscape:connector-curvature="0" d="M108.2,81.5c0,0-0.3-0.4-0.7-0.4c-0.7,0-1.4,0.9-1.9,2.5
		c-0.1,0.3-0.4,2.3-0.4,2.3h-0.9c0.1-0.9,0.8-4.2,0.9-5.7h1c-0.1,0.7-0.3,1.7-0.3,1.7c0.5-1.1,1.3-1.8,2-1.8c0.6,0,0.9,0.5,0.9,0.5
		L108.2,81.5z"/>
	<path id="path133" inkscape:connector-curvature="0" d="M115.2,86c-0.4,0-0.6-0.1-0.6-0.1l0.3-1.6c0,0-0.3,0.5-0.8,0.9
		S113,86,112.2,86c-0.6,0-0.8-0.4-0.8-1c0-0.5,0.5-3.2,0.7-4.8h0.9c-0.3,1.9-0.7,3.9-0.7,4.5c0,0.3,0,0.4,0.3,0.4
		c0.9,0,2.2-1.5,2.4-2.4c0.1-0.5,0.5-2.5,0.5-2.5h0.9c0,0-0.3,1.6-0.5,2.6c-0.3,1.6-0.4,2.3-0.4,2.3c0.4,0,1-0.3,1-0.3l0.3,0.6
		C117,85.5,116.3,86,115.2,86z"/>
	<path id="path135" inkscape:connector-curvature="0" d="M121.9,85.9c-0.4,0-0.6-0.1-0.6-0.1c0.3-2,0.7-3.9,0.7-4.4
		c0-0.3,0-0.4-0.3-0.4c-0.9,0-2.2,1.4-2.4,2.4c-0.1,0.4-0.5,2.5-0.5,2.5h-0.9c0.1-0.9,0.8-4.5,1-5.7h1c-0.1,0.7-0.3,1.6-0.3,1.6
		s1.1-1.8,2.7-1.8c0.6,0,0.9,0.4,0.9,0.9s-0.4,2.6-0.6,4c0.4,0,1-0.3,1-0.3l0.3,0.6C123.7,85.4,123,85.9,121.9,85.9z"/>
	<path id="path137" inkscape:connector-curvature="0" d="M127.3,83.2c-0.8,0.3-1.7,0.4-1.7,0.4s0,0.2,0,0.4c0,0.7,0.3,1.2,1,1.2
		c1.2,0,2.2-1,2.2-1l0.4,0.7c0,0-1.2,1.2-2.8,1.2c-1,0-1.8-0.5-1.8-1.9c0-1.9,1-4,3.1-4c0.9,0,1.5,0.4,1.5,1.2
		C129.1,82.3,128.5,82.8,127.3,83.2z M127.4,80.9c-0.7,0-1.5,0.6-1.8,2c0,0,0.5-0.1,1.3-0.3c0.7-0.2,1.2-0.5,1.2-1.1
		C128.1,81,127.8,80.9,127.4,80.9z"/>
	<path id="path139" inkscape:connector-curvature="0" d="M136.1,81.2c0,0-0.5-0.3-1.3-0.3c-0.7,0-1.1,0.3-1.1,0.7
		c0,0.5,0.3,0.7,1,1.1c0.4,0.3,1.2,0.8,1.2,1.6c0,1.2-0.8,1.7-2.1,1.7c-1,0-1.7-0.5-1.7-0.5l0.1-0.9c0,0,0.8,0.7,1.7,0.7
		c0.7,0,1.1-0.2,1.1-0.7c0-0.4-0.3-0.8-1-1.2c-0.7-0.4-1.2-0.9-1.2-1.6c0-1.1,0.9-1.7,2-1.7c0.9,0,1.3,0.2,1.3,0.2V81.2z"/>
	<path id="path141" inkscape:connector-curvature="0" d="M139.6,86.1c-1.2,0-2.5-0.6-2.5-2.5s1.2-3.4,3-3.4c1.1,0,2.4,0.4,2.4,2.5
		C142.5,84.4,141.4,86.1,139.6,86.1z M140,80.9c-0.8,0-1.9,0.7-1.9,2.7c0,1.2,0.7,1.7,1.5,1.7c0.9,0,1.9-0.9,1.9-2.7
		C141.5,81.4,140.8,80.9,140,80.9z"/>
	<path id="path143" inkscape:connector-curvature="0" d="M147.9,81.3c0,0-0.6-0.4-1.4-0.4c-1.4,0-2,1.8-2,3.1c0,0.7,0.3,1.2,1,1.2
		c1.2,0,2.2-1,2.2-1l0.4,0.7c0,0-1.2,1.2-2.8,1.2c-1,0-1.8-0.5-1.8-1.9c0-2,1-4,3.1-4c0.9,0,1.5,0.3,1.5,0.3L147.9,81.3z"/>
	<path id="path145" inkscape:connector-curvature="0" d="M149.9,85.9H149l0.9-5.7h0.9L149.9,85.9z M150.7,78.6
		c-0.5,0-0.5-0.4-0.5-0.6c0-0.5,0.3-0.8,0.7-0.8s0.5,0.2,0.5,0.6S151.1,78.6,150.7,78.6z"/>
	<path id="path147" inkscape:connector-curvature="0" d="M154.6,83.2c-0.8,0.3-1.7,0.4-1.7,0.4s0,0.2,0,0.4c0,0.7,0.3,1.2,1,1.2
		c1.2,0,2.2-1,2.2-1l0.4,0.7c0,0-1.2,1.2-2.8,1.2c-1,0-1.8-0.5-1.8-1.9c0-1.9,1-4,3.1-4c0.9,0,1.5,0.4,1.5,1.2
		C156.4,82.3,155.8,82.8,154.6,83.2z M154.8,80.9c-0.7,0-1.5,0.6-1.8,2c0,0,0.5-0.1,1.3-0.3c0.7-0.2,1.2-0.5,1.2-1.1
		C155.5,81,155.1,80.9,154.8,80.9z M154.3,79.6l-0.5-0.4l2.3-2l0.6,0.5L154.3,79.6L154.3,79.6z"/>
	<path id="path149" inkscape:connector-curvature="0" d="M160.9,81.2h-1.7c0,0-0.2,1-0.4,2.1c-0.1,0.6-0.2,1.1-0.2,1.4
		c0,0.5,0.2,0.6,0.5,0.6c0.5,0,1-0.4,1.2-0.6v0.8c0,0-0.7,0.6-1.7,0.6c-0.8,0-1.1-0.5-1.1-1.1c0-0.4,0.2-1.5,0.3-2.2
		c0.1-0.9,0.3-1.6,0.3-1.6h-0.9l0.1-0.8h0.9l0.5-1.4h0.7l-0.2,1.5h1.7L160.9,81.2L160.9,81.2z"/>
	<path id="path151" inkscape:connector-curvature="0" d="M164.2,83.2c-0.8,0.3-1.7,0.4-1.7,0.4s0,0.2,0,0.4c0,0.7,0.3,1.2,1,1.2
		c1.2,0,2.2-1,2.2-1l0.4,0.7c0,0-1.2,1.2-2.8,1.2c-1,0-1.8-0.5-1.8-1.9c0-1.9,1-4,3.1-4c0.9,0,1.5,0.4,1.5,1.2
		C166,82.3,165.4,82.8,164.2,83.2z M164.4,80.9c-0.7,0-1.5,0.6-1.8,2c0,0,0.5-0.1,1.3-0.3c0.7-0.2,1.2-0.5,1.2-1.1
		C165.1,81,164.7,80.9,164.4,80.9z M163.9,79.6l-0.5-0.4l2.3-2l0.6,0.5L163.9,79.6L163.9,79.6z"/>
	<path id="path153" inkscape:connector-curvature="0" d="M176.9,85.9c-0.4,0-0.6-0.1-0.6-0.1c0.3-2,0.7-3.9,0.7-4.4
		c0-0.3,0-0.4-0.3-0.4c-1,0-2.2,1.6-2.4,2.2c-0.2,1-0.4,2.1-0.5,2.7h-1c0.3-2,0.7-3.9,0.7-4.5c0-0.3,0-0.4-0.3-0.4
		c-0.9,0-2.2,1.4-2.4,2.4c-0.1,0.4-0.5,2.5-0.5,2.5h-0.9c0.1-0.9,0.8-4.5,1-5.7h1c-0.1,0.7-0.3,1.6-0.3,1.6s1.1-1.8,2.7-1.8
		c0.6,0,0.8,0.4,0.8,0.9c0,0.2-0.1,0.8-0.1,0.8s1.1-1.7,2.6-1.7c0.6,0,0.9,0.4,0.9,0.9s-0.4,2.6-0.6,4c0.4,0,1-0.3,1-0.3l0.3,0.6
		C178.6,85.4,177.9,85.9,176.9,85.9L176.9,85.9z"/>
	<path id="path155" inkscape:connector-curvature="0" d="M182.2,83.2c-0.8,0.3-1.7,0.4-1.7,0.4s0,0.2,0,0.4c0,0.7,0.3,1.2,1,1.2
		c1.2,0,2.2-1,2.2-1l0.4,0.7c0,0-1.2,1.2-2.8,1.2c-1,0-1.8-0.5-1.8-1.9c0-1.9,1-4,3.1-4c0.9,0,1.5,0.4,1.5,1.2
		C184,82.3,183.4,82.8,182.2,83.2z M182.3,80.9c-0.7,0-1.5,0.6-1.8,2c0,0,0.5-0.1,1.3-0.3c0.7-0.2,1.2-0.5,1.2-1.1
		C183,81,182.7,80.9,182.3,80.9z"/>
	<path id="path157" inkscape:connector-curvature="0" d="M185.9,85.9H185l0.9-5.7h0.9L185.9,85.9z M186.6,78.6
		c-0.5,0-0.5-0.4-0.5-0.6c0-0.5,0.3-0.8,0.7-0.8s0.5,0.2,0.5,0.6S187,78.6,186.6,78.6z"/>
	<path id="path159" inkscape:connector-curvature="0" d="M188.8,85.9h-0.9l1.5-9.2h0.9L188.8,85.9z"/>
	<path id="path161" inkscape:connector-curvature="0" d="M191.6,85.9h-0.9l1.5-9.2h0.9L191.6,85.9z"/>
	<path id="path163" inkscape:connector-curvature="0" d="M196.3,83.2c-0.8,0.3-1.7,0.4-1.7,0.4s0,0.2,0,0.4c0,0.7,0.3,1.2,1,1.2
		c1.2,0,2.2-1,2.2-1l0.4,0.7c0,0-1.2,1.2-2.8,1.2c-1,0-1.8-0.5-1.8-1.9c0-1.9,1-4,3.1-4c0.9,0,1.5,0.4,1.5,1.2
		C198.1,82.3,197.5,82.8,196.3,83.2z M196.5,80.9c-0.7,0-1.5,0.6-1.8,2c0,0,0.5-0.1,1.3-0.3c0.7-0.2,1.2-0.5,1.2-1.1
		C197.1,81,196.8,80.9,196.5,80.9z"/>
	<path id="path165" inkscape:connector-curvature="0" d="M203,86c-0.4,0-0.6-0.1-0.6-0.1l0.3-1.6c0,0-0.3,0.5-0.8,0.9
		S200.8,86,200,86c-0.6,0-0.8-0.4-0.8-1c0-0.5,0.5-3.2,0.7-4.8h0.9c-0.3,1.9-0.7,3.9-0.7,4.5c0,0.3,0,0.4,0.3,0.4
		c0.9,0,2.2-1.5,2.4-2.4c0.1-0.5,0.5-2.5,0.5-2.5h0.9c0,0-0.3,1.6-0.5,2.6c-0.3,1.6-0.4,2.3-0.4,2.3c0.4,0,1-0.3,1-0.3l0.3,0.6
		C204.7,85.5,204,86,203,86L203,86z"/>
	<path id="path167" inkscape:connector-curvature="0" d="M209.6,81.5c0,0-0.3-0.4-0.7-0.4c-0.7,0-1.4,0.9-1.9,2.5
		c-0.1,0.3-0.4,2.3-0.4,2.3h-0.9c0.1-0.9,0.8-4.2,0.9-5.7h1c-0.1,0.7-0.3,1.7-0.3,1.7c0.5-1.1,1.3-1.8,2-1.8c0.6,0,0.9,0.5,0.9,0.5
		L209.6,81.5z"/>
	<path id="path169" inkscape:connector-curvature="0" d="M212.8,83.2c-0.8,0.3-1.7,0.4-1.7,0.4s0,0.2,0,0.4c0,0.7,0.3,1.2,1,1.2
		c1.2,0,2.2-1,2.2-1l0.4,0.7c0,0-1.2,1.2-2.8,1.2c-1,0-1.8-0.5-1.8-1.9c0-1.9,1-4,3.1-4c0.9,0,1.5,0.4,1.5,1.2
		C214.7,82.3,214,82.8,212.8,83.2z M213,80.9c-0.7,0-1.5,0.6-1.8,2c0,0,0.5-0.1,1.3-0.3c0.7-0.2,1.2-0.5,1.2-1.1
		C213.7,81,213.3,80.9,213,80.9z"/>
</g>
</svg>
