<?xml version="1.0" encoding="utf-8"?>
<!-- Generator: Adobe Illustrator 21.0.2, SVG Export Plug-In . SVG Version: 6.00 Build 0)  -->
<svg version="1.2" baseProfile="tiny" id="Calque_1"
	 xmlns="http://www.w3.org/2000/svg" xmlns:xlink="http://www.w3.org/1999/xlink" x="0px" y="0px" viewBox="0 0 388.5 388.5"
	 xml:space="preserve">
<g>
	<g>
		<g>
			<path fill="#E5A32B" stroke="#551F00" stroke-width="1.0202" stroke-miterlimit="10" d="M197.8,261.7c-1.4,0.1-2.7-0.7-3.3-2
				c-2.9-6.1-10.9-24.6-8.3-39.4c1-5.7-4.6-10.5-6.7-12.2c0,0,1.9-17.6-16.6-14c-3.1,0.6-15.8,0.5-15.8,0.5l-3-2.4l-7.7-11
				c0,0,1.3-35,29.3-41.7c3-0.7,17.3-2.1,18.7-0.7s12.7,14.3,34.8,4c0,0-6-6.1-19.5-8.8c0,0-14-3.4-18.1-7.5
				c-2.6-2.6-10-0.4-12.1,4.6c-1.6,3.8-5.9,6-6.8,6.4c-6.4,2.9-15.6-4.4-8.5-11c5.4-5,8.6-1.8,9.4-3.1c0.8-1.4,1-4,1.1-5.9
				c0.1-1.9,2.9-4.4,2.9-4.4l6.1-4.9c0,0,5.4-2.5,3.9-14.1c-0.3-2.7,0.9-5.4,3.3-6.7c2.7-1.5,5.8-3.9,5.9-7.5c0.1-6.5,31,0.7,31,0.7
				s21.7-1.8,44.5,17.7s24.5,19.6,32.9,35s17.7,47.4,17.3,52.1c0,0.2-7.8,1-9.5-1.5c-0.5-0.8-2.2-2-2.5-4.2
				c-0.5-3.7-2.5-5.5-4.9-5.5c-9.8-0.1-7.3,13.1-8.8,16c0,0-3-0.4-6.7-12c-2.8-8.5-9.1-14.4-11.5-13.8c-5.5,0.2-8.1,4.3-11.2,7.6
				c-2.8,5.6-18,33.8-23.3,37.9c-0.8,0.6-1.1,1.5-1.1,2.5c0.4,4.3,2.9,15.4-0.5,16.8C224.4,232.7,223.3,260.2,197.8,261.7z"/>
			<path fill="#E5A32B" stroke="#551F00" stroke-width="1.0202" stroke-miterlimit="10" d="M80.6,181.3c0,0,11.8,16,17.7,20.4
				c5.9,4.4,5.5,4.5,11.2,6.9c5.7,2.4,2.3,11,2.3,11s-3.3,17-5.1,18c-1.7,1-3.3,1.2-3.9,4c-0.6,2.8,0.6,1.6-0.8,4.5
				s-2.9,4.1-2.3,10.6c0.5,6.5-3,2.2-3,2.2l-19.3-81.3L80.6,181.3z"/>
			<path fill="#E5A32B" stroke="#551F00" stroke-width="1.0202" stroke-miterlimit="10" d="M235.8,242.5l0.1-4.1
				c0-0.4,0.1-0.7,0.3-1l8.3-15.3c0,0,1.1,0.3,1.8,1.6c0.7,1.3,0.8,6.7,0.8,6.7c0.1,0.3,0,1.7-0.1,2l-1.3,3.5c0,0-1.7,5.9-6.5,8.6
				C237.7,245.4,235.8,244.2,235.8,242.5z"/>
			<path fill="#E5A32B" stroke="#551F00" stroke-width="1.0202" stroke-miterlimit="10" d="M158.2,103.3l1.6-3
				c0.1-0.3,0.3-0.5,0.6-0.7l1.4-1.1c0.9-0.7,2.2-0.5,2.8,0.4l2.3,3.3c0.5,0.7,0.5,1.7,0,2.4l-2.5,3.3c0,0.1-0.1,0.1-0.2,0.2
				l-3.5,3.6c-0.6,0.6-1.4,0.8-2.2,0.5l-2.3-0.9c-0.6-0.2-1-0.7-1.2-1.3c0,0-1-2.6-0.8-3.2s2.9-0.6,3.3-1S158.2,103.3,158.2,103.3z"
				/>
		</g>
		<path fill="#551F00" d="M194.3,74.2c-65.7,0-119,53.3-119,119s53.3,119,119,119s119-53.3,119-119S260,74.2,194.3,74.2z
			 M194.3,302.1c-60.1,0-108.8-48.7-108.8-108.8S134.1,84.4,194.3,84.4c60.1,0,108.8,48.7,108.8,108.8S254.4,302.1,194.3,302.1z"/>
	</g>
	<g>
		<path fill="#551F00" d="M31.5,110.5l-0.2,0.3c8.5,5.1,14.1,8.5,16.9,10.3l23.9,16l-6.5,9.7l-51.4-34.5l9.9-14.8l47.5,14.2l0.1-0.2
			L41.1,72.4L51,57.5L102.4,92l-6.8,10.2L71.3,85.8c-1.1-0.8-2.5-1.7-3.9-2.7s-5.4-3.9-11.6-8.5l-0.2,0.3l31.4,40.3l-6.7,10
			L31.5,110.5z"/>
		<path fill="#551F00" d="M133.4,58.5l-19.8,10.8l3.1,15.1l-12.4,6.8l-10.7-65l14.1-7.7l49.1,44l-12.4,6.8L133.4,58.5z M108.3,33.9
			c-1.3-1.3-2.3-2.3-3-3.1c0.9,3.6,2.9,12.7,5.9,27.3l14.1-7.8C115.3,40.7,109.6,35.2,108.3,33.9z"/>
		<path fill="#551F00" d="M172.8,62.1l-13.1,1.3l-6.4-61.6L171.3,0c8.4-0.9,14.7,0,19,2.7s6.8,7,7.5,13.3c0.4,3.6-0.3,6.9-2,10
			c-1.7,3-4.3,5.5-7.8,7.5c10.7,12.9,17.7,21.2,20.9,25l-14.5,1.5l-17.1-22.1l-6.9,0.7L172.8,62.1z M173.5,27.4
			c4.1-0.4,7.1-1.4,8.9-3c1.8-1.6,2.6-3.8,2.3-6.8c-0.3-2.9-1.5-4.9-3.7-5.9c-2.1-1-5.3-1.3-9.5-0.9l-4,0.4l1.7,16.6L173.5,27.4z"/>
		<path fill="#551F00" d="M224.1,0.9L237,3.3l-11.5,60.8l-12.9-2.4L224.1,0.9z"/>
		<path fill="#551F00" d="M273.3,68.3l-19.9-10.6l-10.9,10.9L230,62l48.5-44.6l14.2,7.5l-9.8,65.2l-12.5-6.6L273.3,68.3z
			 M280.2,33.9c0.4-1.8,0.7-3.2,1-4.2c-2.5,2.8-9.1,9.4-19.7,19.9l14.2,7.6C278.3,43.4,279.8,35.7,280.2,33.9z"/>
		<path fill="#551F00" d="M331.2,72.5l-0.2-0.3c-7.8,6-13.1,10-15.8,11.9l-23.7,16.3l-6.7-9.7l51-35.1l10.1,14.7l-30.7,38.9l0.1,0.2
			l47.8-14.1l10.1,14.7l-51,35.1l-6.9-10.1l24.1-16.6c1.1-0.8,2.5-1.7,4-2.7c1.5-1,5.6-3.6,12.2-7.7l-0.2-0.3l-49,14.4l-6.8-9.9
			L331.2,72.5z"/>
	</g>
	<g>
		<path fill="#551F00" d="M79.8,352l32.2-52.9l30.3,18.4l-5.6,9.2L117.4,315l-8.3,13.6l17.9,10.9l-5.6,9.2l-17.9-10.9l-12.7,20.9
			L79.8,352z"/>
		<path fill="#551F00" d="M167.5,372.1l-22.1-4.7l-7.5,13.5l-13.8-3l34.4-56.2l15.7,3.4l8.4,65.4l-13.8-3L167.5,372.1z M164.6,337.1
			c-0.1-1.8-0.2-3.3-0.2-4.3c-1.7,3.3-6.1,11.5-13.4,24.5l15.8,3.4C165.5,346.8,164.8,338.9,164.6,337.1z"/>
		<path fill="#551F00" d="M233.6,381c-3.6,3.7-8.9,6-16,7c-6.5,0.9-12.5,0.4-17.9-1.4l-1.6-12.1c4.4,1.3,8.1,2.1,11,2.5
			c3,0.4,5.6,0.4,8,0.1c2.9-0.4,5-1.2,6.4-2.5c1.4-1.3,1.9-3,1.6-5.2c-0.2-1.2-0.6-2.2-1.4-3.1c-0.8-0.8-1.9-1.6-3.3-2.3
			c-1.4-0.7-4.2-1.7-8.5-3.1c-4-1.3-7-2.6-9.1-4c-2.1-1.4-3.8-3.1-5.2-5.1c-1.4-2-2.3-4.5-2.7-7.3c-0.7-5.4,0.6-9.9,3.8-13.5
			c3.3-3.6,8.2-5.8,14.6-6.7c3.2-0.4,6.3-0.4,9.3-0.1c3,0.4,6.2,1,9.5,2l-2.9,10.7c-3.5-0.9-6.3-1.5-8.5-1.7c-2.2-0.3-4.4-0.2-6.4,0
			c-2.5,0.3-4.3,1.1-5.4,2.5s-1.6,2.9-1.4,4.8c0.2,1.1,0.5,2.1,1.2,2.9c0.6,0.8,1.6,1.5,2.9,2.1s4.2,1.7,8.8,3.2
			c6.1,2,10.4,4.2,12.9,6.7c2.5,2.5,4,5.7,4.5,9.7C238.6,372.7,237.2,377.3,233.6,381z"/>
		<path fill="#551F00" d="M304,347c-1.8,7.3-6.8,13.2-15.1,17.8c-8.3,4.6-16,5.7-23.1,3.4c-7.1-2.3-13.2-8-18.2-17
			s-6.6-17.1-4.8-24.3c1.8-7.2,6.9-13.2,15.2-17.8c8.3-4.6,16-5.8,23.1-3.4c7.1,2.3,13.1,8,18.1,17C304.2,331.6,305.8,339.8,304,347
			z M270.7,356.4c4,1.8,8.3,1.4,12.8-1.1c9.2-5.1,10.3-13.7,3.6-25.9c-6.8-12.2-14.7-15.7-23.8-10.7c-4.6,2.5-7.2,6-7.8,10.4
			c-0.6,4.4,0.8,9.6,4.1,15.6C263.1,350.7,266.7,354.6,270.7,356.4z"/>
	</g>
	<g>
		<path fill="#E5A32B" d="M84.7,313.5c-22.2-18.1-39.8-41.7-49.3-68.8c-10.6-30.2-10.9-63.1-1.1-93.5c1-3.1-3.9-4.5-4.9-1.4
			c-10,31.3-9.8,65.3,1.1,96.3c9.9,27.9,27.8,52.4,50.6,71.1C83.6,319.2,87.2,315.6,84.7,313.5L84.7,313.5z"/>
	</g>
	<g>
		<path fill="#E5A32B" d="M315.8,317.1c21.8-20,38.5-45.5,46.7-74c8.9-30.9,7.4-64.1-3.7-94.2c-1.1-3.1-6.1-1.7-4.9,1.4
			c10.8,29.3,12.4,61.4,3.7,91.5c-8,27.7-24.1,52.3-45.4,71.8C309.8,315.8,313.4,319.4,315.8,317.1L315.8,317.1z"/>
	</g>
</g>
</svg>
